HIERARCHY
ROOT Hips
{
 OFFSET 0.000000 0.000000 0.000000
 CHANNELS 6 Xposition Yposition Zposition Yrotation Xrotation Zrotation
 JOINT Chest
 {
  OFFSET 0.000000 9.585900 0.002600
  CHANNELS 3 Yrotation Xrotation Zrotation
  JOINT Chest2
  {
   OFFSET 0.000000 9.601200 -0.005300
   CHANNELS 3 Yrotation Xrotation Zrotation
   JOINT Chest3
   {
    OFFSET 0.000000 9.561800 0.000000
    CHANNELS 3 Yrotation Xrotation Zrotation
    JOINT Chest4
    {
     OFFSET 0.000000 9.552100 0.000000
     CHANNELS 3 Yrotation Xrotation Zrotation
     JOINT Neck
     {
      OFFSET 0.000000 14.453000 0.000000
      CHANNELS 3 Yrotation Xrotation Zrotation
      JOINT Head
      {
       OFFSET 0.000000 8.936500 -0.011300
       CHANNELS 3 Yrotation Xrotation Zrotation
       End Site
       {
        OFFSET 0.000000 17.073600 -0.006000
       }
      }
     }
     JOINT RightCollar
     {
      OFFSET -2.921100 9.558500 0.000000
      CHANNELS 3 Yrotation Xrotation Zrotation
      JOINT RightShoulder
      {
       OFFSET -13.519700 0.000000 0.000000
       CHANNELS 3 Yrotation Xrotation Zrotation
       JOINT RightElbow
       {
        OFFSET 0.000000 -29.696600 0.000000
        CHANNELS 3 Yrotation Xrotation Zrotation
        JOINT RightWrist
        {
         OFFSET 0.000000 -24.004700 0.000000
         CHANNELS 3 Yrotation Xrotation Zrotation
         End Site
         {
          OFFSET 0.000000 -17.728500 0.000000
         }
        }
       }
      }
     }
     JOINT LeftCollar
     {
      OFFSET 2.921100 9.558500 0.000000
      CHANNELS 3 Yrotation Xrotation Zrotation
      JOINT LeftShoulder
      {
       OFFSET 13.519700 0.000000 0.000000
       CHANNELS 3 Yrotation Xrotation Zrotation
       JOINT LeftElbow
       {
        OFFSET 0.000000 -29.696600 0.000000
        CHANNELS 3 Yrotation Xrotation Zrotation
        JOINT LeftWrist
        {
         OFFSET 0.000000 -24.004700 0.000000
         CHANNELS 3 Yrotation Xrotation Zrotation
         End Site
         {
          OFFSET 0.000000 -17.728500 0.000000
         }
        }
       }
      }
     }
    }
   }
  }
 }
 JOINT RightHip
 {
  OFFSET -7.771700 -0.012900 -0.001300
  CHANNELS 3 Yrotation Xrotation Zrotation
  JOINT RightKnee
  {
   OFFSET 0.000000 -40.869800 0.001200
   CHANNELS 3 Yrotation Xrotation Zrotation
   JOINT RightAnkle
   {
    OFFSET 0.000000 -39.717900 0.002100
    CHANNELS 3 Yrotation Xrotation Zrotation
    JOINT RightToe
    {
     OFFSET 0.000000 -4.965400 11.033500
     CHANNELS 3 Yrotation Xrotation Zrotation
     End Site
     {
      OFFSET 0.000000 -1.423100 5.872300
     }
    }
   }
  }
 }
 JOINT LeftHip
 {
  OFFSET 7.771700 -0.012900 -0.001300
  CHANNELS 3 Yrotation Xrotation Zrotation
  JOINT LeftKnee
  {
   OFFSET 0.000000 -40.869800 0.001200
   CHANNELS 3 Yrotation Xrotation Zrotation
   JOINT LeftAnkle
   {
    OFFSET 0.000000 -39.717900 0.002100
    CHANNELS 3 Yrotation Xrotation Zrotation
    JOINT LeftToe
    {
     OFFSET 0.000000 -4.965400 11.033500
     CHANNELS 3 Yrotation Xrotation Zrotation
     End Site
     {
      OFFSET 0.000000 -1.423100 5.872300
     }
    }
   }
  }
 }
}
MOTION
Frames: 12
Frame Time: 0.008333
-3.924385 52.461096 32.473288 170.647801 -37.578892 -1.963554 3.087862 21.957312 1.972298 0.349147 3.066191 0.388429 0.569692 4.976478 0.641194 2.512024 18.583730 2.733969 1.713699 14.346062 0.082948 3.141400 -9.144101 -0.477112 -2.971945 -2.268055 -3.361428 -2.692433 -0.373992 4.710717 179.996071 -79.651762 -165.136192 2.510848 -4.696618 -10.273212 -4.432051 -0.825043 -0.369642 7.205738 -1.799600 2.976800 152.857794 -73.580521 -159.024280 -0.868279 -15.534797 6.888729 -4.792991 -43.632488 3.792753 -124.818949 85.864171 -120.153931 -0.185233 -9.612347 -3.581963 0.585010 -0.903177 0.254453 -0.083397 -40.099540 5.890559 73.394476 83.088063 63.474222 -5.409302 -12.909317 9.062138 0.434997 1.446596 0.175103
-3.923501 52.456106 32.473127 170.640420 -37.582498 -1.962296 3.074782 21.962581 1.971336 0.347101 3.067691 0.387714 0.582254 4.975581 0.638510 2.502304 18.585914 2.730660 1.713000 14.341589 0.084966 3.146704 -9.159363 -0.483582 -2.961891 -2.267496 -3.371350 -2.742710 -0.374263 4.665483 179.846885 -79.363626 -164.938565 2.449883 -5.128274 -10.477298 -4.426290 -0.823758 -0.366557 7.222717 -1.830305 3.012906 154.378705 -73.345275 -160.453793 -0.706987 -16.523340 7.452696 -4.802925 -43.628538 3.799844 -124.833774 85.865784 -120.169278 -0.178680 -9.616447 -3.587328 0.582674 -0.901079 0.251904 -0.085061 -40.097256 5.892226 73.389821 83.092299 63.473216 -5.406658 -12.909796 9.056711 0.444033 1.447982 0.180509
-3.921262 52.451697 32.472464 170.636584 -37.592933 -1.966845 3.072793 21.969582 1.977325 0.351036 3.070665 0.387199 0.566891 4.974406 0.639105 2.500712 18.586073 2.725772 1.717508 14.340853 0.081123 3.146843 -9.175113 -0.483863 -2.961030 -2.239059 -3.373478 -2.770964 -0.398640 4.627103 179.592823 -79.051309 -164.647208 2.398217 -5.615058 -10.688881 -4.413132 -0.818416 -0.368513 7.235985 -1.845284 3.024301 156.109101 -73.089450 -162.084003 -0.566768 -17.430624 8.012785 -4.818579 -43.616666 3.810062 -124.961525 85.875201 -120.288051 -0.197551 -9.620760 -3.610538 0.592929 -0.906338 0.261614 -0.091761 -40.087845 5.901355 73.427331 83.091209 63.512119 -5.409519 -12.913889 9.053099 0.447853 1.450165 0.182909
-3.919587 52.447046 32.472172 170.626208 -37.602221 -1.961174 3.076705 21.975979 1.976957 0.350569 3.072105 0.387271 0.561952 4.970534 0.638724 2.490603 18.582930 2.724815 1.718808 14.342254 0.079299 3.151646 -9.181459 -0.489426 -2.946394 -2.214393 -3.377594 -2.783138 -0.413583 4.612770 179.160337 -78.704163 -164.206584 2.372422 -6.130319 -10.898861 -4.400862 -0.807158 -0.372801 7.245257 -1.851710 3.025893 157.900255 -72.804012 -163.766515 -0.453261 -18.252046 8.567527 -4.819547 -43.609676 3.814808 -125.049618 85.877613 -120.375395 -0.203591 -9.621408 -3.617765 0.594428 -0.908678 0.262027 -0.082390 -40.079056 5.893901 73.489900 83.076109 63.583199 -5.417595 -12.920241 9.047283 0.448358 1.454826 0.183551
-3.918357 52.442293 32.472345 170.627821 -37.610453 -1.958452 3.069023 21.980626 1.971501 0.344166 3.067626 0.387097 0.569645 4.976764 0.638353 2.481195 18.568701 2.726960 1.709205 14.345607 0.076571 3.167343 -9.172015 -0.496350 -2.935297 -2.191606 -3.383781 -2.893999 -0.400674 4.528537 179.112444 -78.304133 -164.069022 2.371949 -6.644727 -11.089195 -4.405420 -0.793424 -0.375925 7.276147 -1.870498 3.042371 159.558703 -72.495869 -165.328958 -0.374110 -18.982019 9.110526 -4.824524 -43.603479 3.815572 -125.090875 85.876532 -120.419095 -0.205848 -9.622185 -3.617672 0.594668 -0.911088 0.259136 -0.074865 -40.070341 5.883311 73.499892 83.065238 63.597973 -5.422986 -12.924023 9.046263 0.450249 1.461368 0.189873
-3.917951 52.437203 32.473409 170.633666 -37.615290 -1.953338 3.056923 21.958488 1.967220 0.341105 3.085597 0.383112 0.568045 4.975307 0.638604 2.482031 18.551120 2.729490 1.691710 14.333358 0.072840 3.166276 -9.147290 -0.501284 -2.937200 -2.130521 -3.382042 -2.969251 -0.413452 4.462615 178.765942 -77.860627 -163.677732 2.375407 -7.141795 -11.240261 -4.399212 -0.771944 -0.384644 7.305254 -1.912453 3.080319 161.061334 -72.174036 -166.754206 -0.329630 -19.612896 9.631867 -4.817195 -43.600841 3.789412 -125.261520 85.888468 -120.574782 -0.201921 -9.626336 -3.623636 0.587732 -0.913610 0.255104 -0.067097 -40.065202 5.868322 73.501186 83.052931 63.602534 -5.437177 -12.925130 9.045856 0.456173 1.467492 0.193616
-3.917279 52.432690 32.474520 170.645918 -37.625247 -1.953919 3.045683 21.952294 1.965508 0.340697 3.082962 0.381451 0.568468 4.936248 0.646362 2.476316 18.569313 2.729365 1.685121 14.344257 0.064861 3.142987 -9.139638 -0.518858 -2.944569 -2.030530 -3.360366 -3.034088 -0.454421 4.392232 178.195600 -77.379511 -163.093816 2.374808 -7.609113 -11.343242 -4.393421 -0.745298 -0.396147 7.329957 -1.945405 3.102123 162.577519 -71.834165 -168.193769 -0.310903 -20.144498 10.113433 -4.817280 -43.591804 3.770460 -125.356234 85.888471 -120.654296 -0.205845 -9.633659 -3.634817 0.594708 -0.912548 0.256441 -0.068863 -40.055052 5.858233 73.492011 83.045370 63.592643 -5.441017 -12.926559 9.046409 0.455612 1.472593 0.195889
-3.916328 52.428988 32.475324 170.651237 -37.643514 -1.952666 3.040817 21.964565 1.963815 0.341273 3.060436 0.387873 0.568232 4.947212 0.641339 2.473277 18.541441 2.734256 1.680129 14.359073 0.056752 3.140530 -9.110884 -0.519039 -2.948326 -1.961702 -3.354994 -3.103641 -0.456004 4.344336 177.524101 -76.862998 -162.427540 2.376707 -8.031259 -11.395281 -4.387941 -0.716423 -0.410350 7.358791 -1.978056 3.114072 164.083084 -71.488721 -169.627103 -0.298950 -20.594424 10.542558 -4.814724 -43.574650 3.760556 -125.372060 85.884539 -120.664024 -0.204178 -9.637638 -3.635918 0.594274 -0.912195 0.255229 -0.062178 -40.035487 5.850850 73.453393 83.046124 63.556366 -5.443584 -12.930702 9.040921 0.458567 1.478598 0.204652
-3.914680 52.425013 32.477250 170.657581 -37.659187 -1.958839 3.045725 21.951232 1.972675 0.339567 3.024235 0.390139 0.563683 4.993459 0.639638 2.466061 18.516369 2.739383 1.679058 14.387816 0.049319 3.134206 -9.100533 -0.534711 -2.952185 -1.871363 -3.328735 -3.174345 -0.484156 4.287956 176.829162 -76.328740 -161.748402 2.383705 -8.401511 -11.397978 -4.383071 -0.681427 -0.424057 7.399127 -2.026993 3.118653 165.529598 -71.146896 -170.996890 -0.265397 -20.993379 10.896090 -4.823031 -43.559375 3.753345 -125.270703 85.869727 -120.544611 -0.190439 -9.634425 -3.655235 0.604576 -0.917811 0.259294 -0.064809 -40.020826 5.849957 73.431477 83.046037 63.536662 -5.433596 -12.933892 9.041569 0.451043 1.482763 0.202900
-3.913667 52.422256 32.477794 170.666642 -37.687526 -1.963460 3.037329 21.929223 1.974186 0.337969 3.046918 0.391575 0.563769 4.981664 0.638478 2.462202 18.521076 2.748506 1.677591 14.408570 0.037955 3.133032 -9.080666 -0.548466 -2.957832 -1.754174 -3.263786 -3.248315 -0.554934 4.202583 176.182682 -75.796883 -161.121127 2.391014 -8.731243 -11.357456 -4.375234 -0.653966 -0.443256 7.448170 -2.080197 3.120879 166.864953 -70.807934 -172.255525 -0.213491 -21.364434 11.172273 -4.823174 -43.528691 3.739974 -125.254495 85.868416 -120.518534 -0.176645 -9.637386 -3.656903 0.593672 -0.917504 0.255155 -0.065448 -39.993385 5.852366 73.411385 83.052677 63.508024 -5.422421 -12.926184 9.054811 0.438950 1.474828 0.198164
-3.913138 52.418670 32.479439 170.674158 -37.708401 -1.967270 3.031403 21.943935 1.974482 0.335223 3.030249 0.396512 0.563265 4.975613 0.636972 2.458865 18.524447 2.758566 1.676223 14.405594 0.037349 3.133284 -9.039001 -0.569009 -2.954834 -1.717051 -3.269118 -3.334602 -0.553585 4.187756 175.641315 -75.281426 -160.596673 2.390510 -9.032775 -11.284286 -4.359094 -0.628403 -0.471852 7.505201 -2.139052 3.120696 168.041458 -70.467808 -173.389166 -0.175346 -21.715238 11.408309 -4.823265 -43.508376 3.734356 -125.206332 85.861493 -120.463730 -0.172422 -9.638481 -3.660740 0.591304 -0.918617 0.257648 -0.061226 -39.974453 5.855200 73.381550 83.058667 63.471075 -5.417685 -12.915851 9.065023 0.432168 1.467239 0.198492
-3.910711 52.414974 32.481613 170.680844 -37.727230 -1.984184 3.029000 21.939943 1.993779 0.335336 3.042162 0.394015 0.556200 4.946322 0.650299 2.455736 18.547655 2.757197 1.677252 14.416975 0.028748 3.133523 -9.019969 -0.579053 -2.961420 -1.650148 -3.244182 -3.418231 -0.592076 4.148922 175.242118 -74.791903 -160.205069 2.380258 -9.311888 -11.196986 -4.344037 -0.600833 -0.495514 7.575995 -2.199837 3.103168 169.068934 -70.125727 -174.408196 -0.160644 -22.046969 11.624600 -4.843685 -43.489017 3.746090 -125.170538 85.852847 -120.419047 -0.155316 -9.634283 -3.671938 0.584532 -0.924743 0.258001 -0.057597 -39.962202 5.877245 73.364130 83.076335 63.462180 -5.443347 -12.902397 9.059587 0.459032 1.458693 0.215290
